<?xml version="1.0" encoding="utf-8" standalone="no"?>
<!DOCTYPE svg PUBLIC "-//W3C//DTD SVG 1.1//EN"
  "http://www.w3.org/Graphics/SVG/1.1/DTD/svg11.dtd">
<svg xmlns:xlink="http://www.w3.org/1999/xlink" width="371.52pt" height="280.512pt" viewBox="0 0 371.52 280.512" xmlns="http://www.w3.org/2000/svg" version="1.1">
 <metadata>
  <rdf:RDF xmlns:dc="http://purl.org/dc/elements/1.1/" xmlns:cc="http://creativecommons.org/ns#" xmlns:rdf="http://www.w3.org/1999/02/22-rdf-syntax-ns#">
   <cc:Work>
    <dc:type rdf:resource="http://purl.org/dc/dcmitype/StillImage"/>
    <dc:date>2026-02-11T13:41:01.641531</dc:date>
    <dc:format>image/svg+xml</dc:format>
    <dc:creator>
     <cc:Agent>
      <dc:title>Matplotlib v3.10.7, https://matplotlib.org/</dc:title>
     </cc:Agent>
    </dc:creator>
   </cc:Work>
  </rdf:RDF>
 </metadata>
 <defs>
  <style type="text/css">*{stroke-linejoin: round; stroke-linecap: butt}</style>
 </defs>
 <g id="figure_1">
  <g id="patch_1">
   <path d="M 0 280.512 
L 371.52 280.512 
L 371.52 0 
L 0 0 
z
" style="fill: #ffffff"/>
  </g>
  <g id="axes_1">
   <g id="patch_2">
    <path d="M 7.2 273.312 
L 364.32 273.312 
L 364.32 7.2 
L 7.2 7.2 
z
" style="fill: #ffffff"/>
   </g>
   <g id="patch_3">
    <path d="M 45.024414 969.670822 
L 162.918269 969.670822 
L 162.918269 -612.962865 
L 45.024414 -612.962865 
z
" clip-path="url(#p2538913227)" style="fill: url(#h3fdf03956e); opacity: 0.5; stroke: #32a861; stroke-linejoin: miter"/>
   </g>
   <g id="patch_4">
    <path d="M 223.277584 969.670822 
L 286.039584 969.670822 
L 286.039584 -612.962865 
L 223.277584 -612.962865 
z
" clip-path="url(#p2538913227)" style="fill: url(#h3fdf03956e); opacity: 0.5; stroke: #32a861; stroke-linejoin: miter"/>
   </g>
   <g id="patch_5">
    <path d="M 305.001306 969.670822 
L 348.087273 969.670822 
L 348.087273 -612.962865 
L 305.001306 -612.962865 
z
" clip-path="url(#p2538913227)" style="fill: url(#h3fdf03956e); opacity: 0.5; stroke: #32a861; stroke-linejoin: miter"/>
   </g>
   <g id="patch_6">
    <path d="M 185.76 178.353979 
L 185.76 178.353979 
L 185.76 178.353979 
L 185.76 178.353979 
z
" clip-path="url(#p2538913227)" style="fill: url(#h7e472f4792); stroke: #32a861; stroke-linejoin: miter"/>
   </g>
   <g id="PathCollection_1">
    <defs>
     <path id="m45e4c507a4" d="M 0 3 
C 0.795609 3 1.55874 2.683901 2.12132 2.12132 
C 2.683901 1.55874 3 0.795609 3 0 
C 3 -0.795609 2.683901 -1.55874 2.12132 -2.12132 
C 1.55874 -2.683901 0.795609 -3 0 -3 
C -0.795609 -3 -1.55874 -2.683901 -2.12132 -2.12132 
C -2.683901 -1.55874 -3 -0.795609 -3 0 
C -3 0.795609 -2.683901 1.55874 -2.12132 2.12132 
C -1.55874 2.683901 -0.795609 3 0 3 
z
" style="stroke: #000080"/>
    </defs>
    <g clip-path="url(#p2538913227)">
     <use xlink:href="#m45e4c507a4" x="193.096954" y="165.388058" style="fill: #000080; stroke: #000080"/>
     <use xlink:href="#m45e4c507a4" x="26.333449" y="145.012358" style="fill: #000080; stroke: #000080"/>
     <use xlink:href="#m45e4c507a4" x="295.518957" y="128.639672" style="fill: #000080; stroke: #000080"/>
     <use xlink:href="#m45e4c507a4" x="281.292724" y="111.833514" style="fill: #000080; stroke: #000080"/>
    </g>
   </g>
   <g id="matplotlib.axis_1"/>
   <g id="matplotlib.axis_2"/>
   <g id="line2d_1">
    <path d="M 23.432727 140.416228 
L 28.238095 148.108225 
L 33.822712 157.482466 
L 41.063232 170.10106 
L 59.472986 202.381803 
L 65.12254 211.719157 
L 69.960376 219.295018 
L 74.278714 225.652997 
L 78.239895 231.096459 
L 81.908859 235.767949 
L 85.350541 239.797249 
L 88.597411 243.263261 
L 91.681938 246.237395 
L 94.636589 248.781795 
L 97.461367 250.925275 
L 100.188737 252.718491 
L 102.818702 254.184158 
L 105.351261 255.346187 
L 107.851351 256.249634 
L 110.286504 256.894126 
L 112.689187 257.300362 
L 115.059403 257.476431 
L 117.429618 257.428847 
L 119.799833 257.157746 
L 122.170048 256.663894 
L 124.572732 255.937361 
L 127.040353 254.956649 
L 129.572912 253.706129 
L 132.170408 252.17099 
L 134.832842 250.337469 
L 137.592681 248.165981 
L 140.482396 245.605757 
L 143.501985 242.628793 
L 146.683918 239.173031 
L 150.028194 235.207421 
L 153.599751 230.619693 
L 157.431058 225.326329 
L 161.554583 219.242926 
L 166.13267 212.081664 
L 171.327662 203.529162 
L 177.659059 192.655839 
L 188.113981 174.177105 
L 197.692248 157.42377 
L 203.698958 147.361176 
L 208.699138 139.405831 
L 213.14735 132.737188 
L 217.205937 127.047033 
L 220.939838 122.186431 
L 224.446458 117.97974 
L 227.758265 114.349224 
L 230.875261 111.254522 
L 233.862381 108.596326 
L 236.719627 106.346568 
L 239.479466 104.454213 
L 242.1419 102.896945 
L 244.706927 101.651116 
L 247.207017 100.681145 
L 249.64217 99.97118 
L 252.044854 99.499884 
L 254.415069 99.25937 
L 256.785284 99.24243 
L 259.1555 99.449112 
L 261.525715 99.87883 
L 263.928399 100.540828 
L 266.363551 101.442379 
L 268.863641 102.606678 
L 271.428669 104.048755 
L 274.091102 105.80568 
L 276.850942 107.899901 
L 279.708188 110.35237 
L 282.695308 113.214764 
L 285.812303 116.513149 
L 289.124111 120.348467 
L 292.630731 124.75774 
L 296.364631 129.816542 
L 300.39075 135.651525 
L 304.806494 142.44962 
L 309.806674 150.568785 
L 315.715977 160.606167 
L 323.995496 175.152679 
L 337.599882 199.058648 
L 343.639061 209.184641 
L 348.087273 216.291729 
L 348.087273 216.291729 
" clip-path="url(#p2538913227)" style="fill: none; stroke: #000000; stroke-width: 2; stroke-linecap: square"/>
   </g>
   <g id="line2d_2">
    <path d="M 23.432727 139.862961 
L 26.322442 144.992817 
L 26.387379 144.916621 
L 103.987575 7.2 
L 104.020044 7.257639 
L 193.114161 165.357512 
L 193.14663 165.299873 
L 252.272135 60.339553 
L 252.337072 60.431087 
L 281.299154 111.8221 
L 281.331623 111.764461 
L 283.669369 107.614465 
L 283.734307 107.719417 
L 295.520445 128.637029 
L 295.552914 128.579391 
L 348.087273 35.319754 
L 348.087273 35.319754 
" clip-path="url(#p2538913227)" style="fill: none; stroke: #7b9ef8; stroke-width: 1.5; stroke-linecap: square"/>
   </g>
   <g id="patch_7">
    <path d="M 7.2 273.312 
L 7.2 7.2 
" style="fill: none; stroke: #000000; stroke-width: 0.8; stroke-linejoin: miter; stroke-linecap: square"/>
   </g>
   <g id="patch_8">
    <path d="M 364.32 273.312 
L 364.32 7.2 
" style="fill: none; stroke: #000000; stroke-width: 0.8; stroke-linejoin: miter; stroke-linecap: square"/>
   </g>
   <g id="patch_9">
    <path d="M 7.2 273.312 
L 364.32 273.312 
" style="fill: none; stroke: #000000; stroke-width: 0.8; stroke-linejoin: miter; stroke-linecap: square"/>
   </g>
   <g id="patch_10">
    <path d="M 7.2 7.2 
L 364.32 7.2 
" style="fill: none; stroke: #000000; stroke-width: 0.8; stroke-linejoin: miter; stroke-linecap: square"/>
   </g>
   <g id="legend_1">
    <g id="patch_11">
     <path d="M 218.207633 268.312 
L 357.32 268.312 
Q 359.32 268.312 359.32 266.312 
L 359.32 211.563287 
Q 359.32 209.563287 357.32 209.563287 
L 218.207633 209.563287 
Q 216.207633 209.563287 216.207633 211.563287 
L 216.207633 266.312 
Q 216.207633 268.312 218.207633 268.312 
z
" style="fill: #ffffff; opacity: 0.8; stroke: #cccccc; stroke-linejoin: miter"/>
    </g>
    <g id="patch_12">
     <path d="M 220.207633 220.563287 
L 240.207633 220.563287 
L 240.207633 213.563287 
L 220.207633 213.563287 
z
" style="fill: url(#h7e472f4792); stroke: #32a861; stroke-linejoin: miter"/>
    </g>
    <g id="text_1">
     <!-- Potential maximizers area -->
     <g transform="translate(248.207633 220.563287) scale(0.1 -0.1)">
      <defs>
       <path id="CMSS17-50" d="M 2106 1856 
C 2874 1856 3501 2453 3501 3158 
C 3501 3850 2899 4453 2067 4453 
L 570 4453 
L 570 0 
L 1107 0 
L 1107 1856 
L 2106 1856 
z
M 1926 4096 
C 2669 4096 2995 3627 2995 3157 
C 2995 2720 2694 2226 1926 2226 
L 1094 2226 
L 1094 4096 
L 1926 4096 
z
" transform="scale(0.015625)"/>
       <path id="CMSS17-6f" d="M 2829 1356 
C 2829 2176 2221 2816 1504 2816 
C 768 2816 173 2157 173 1356 
C 173 544 787 -64 1498 -64 
C 2227 -64 2829 563 2829 1356 
z
M 1504 337 
C 1050 337 659 709 659 1408 
C 659 2151 1114 2427 1498 2427 
C 1914 2427 2342 2126 2342 1408 
C 2342 683 1926 337 1504 337 
z
" transform="scale(0.015625)"/>
       <path id="CMSS17-74" d="M 1069 2368 
L 1901 2368 
L 1901 2737 
L 1069 2737 
L 1069 3520 
L 614 3520 
L 614 2737 
L 109 2737 
L 109 2368 
L 602 2368 
L 602 749 
C 602 384 685 -64 1107 -64 
C 1427 -64 1722 25 2003 172 
L 1901 548 
C 1747 414 1562 337 1363 337 
C 1082 337 1069 696 1069 856 
L 1069 2368 
z
" transform="scale(0.015625)"/>
       <path id="CMSS17-65" d="M 2502 1377 
C 2502 1590 2490 2003 2285 2345 
C 2061 2713 1696 2816 1421 2816 
C 755 2816 192 2188 192 1375 
C 192 582 774 -64 1510 -64 
C 1798 -64 2150 19 2470 248 
C 2470 274 2458 414 2451 420 
C 2451 433 2432 630 2432 656 
C 2125 407 1773 325 1517 325 
C 1107 325 666 667 646 1377 
L 2502 1377 
z
M 698 1728 
C 781 2084 1062 2421 1421 2421 
C 1517 2421 1965 2421 2080 1728 
L 698 1728 
z
" transform="scale(0.015625)"/>
       <path id="CMSS17-6e" d="M 2618 1877 
C 2618 2283 2522 2816 1798 2816 
C 1389 2816 1120 2606 941 2389 
L 941 2758 
L 474 2758 
L 474 0 
L 960 0 
L 960 1559 
C 960 1964 1114 2428 1549 2428 
C 2112 2428 2131 2048 2131 1829 
L 2131 0 
L 2618 0 
L 2618 1877 
z
" transform="scale(0.015625)"/>
       <path id="CMSS17-69" d="M 979 4183 
L 442 4183 
L 442 3648 
L 979 3648 
L 979 4183 
z
M 947 2739 
L 474 2739 
L 474 0 
L 947 0 
L 947 2739 
z
" transform="scale(0.015625)"/>
       <path id="CMSS17-61" d="M 2406 1791 
C 2406 2392 1978 2808 1402 2808 
C 1120 2808 813 2757 461 2553 
L 499 2135 
C 659 2248 934 2432 1395 2432 
C 1722 2432 1920 2180 1920 1782 
L 1920 1536 
C 896 1536 256 1238 256 726 
C 256 461 416 -64 947 -64 
C 1043 -64 1562 -64 1933 217 
L 1933 -19 
L 2406 -19 
L 2406 1791 
z
M 1920 816 
C 1920 701 1920 548 1728 434 
C 1562 325 1350 325 1261 325 
C 941 325 723 511 723 744 
C 723 1211 1722 1211 1920 1211 
L 1920 816 
z
" transform="scale(0.015625)"/>
       <path id="CMSS17-6c" d="M 947 4416 
L 474 4416 
L 474 0 
L 947 0 
L 947 4416 
z
" transform="scale(0.015625)"/>
       <path id="CMSS17-6d" d="M 4288 1877 
C 4288 2308 4179 2816 3462 2816 
C 2982 2816 2694 2516 2566 2331 
C 2451 2670 2182 2816 1798 2816 
C 1363 2816 1088 2568 941 2389 
L 941 2758 
L 474 2758 
L 474 0 
L 960 0 
L 960 1559 
C 960 1939 1101 2428 1555 2428 
C 2138 2428 2138 2016 2138 1829 
L 2138 0 
L 2624 0 
L 2624 1559 
C 2624 1939 2765 2428 3219 2428 
C 3802 2428 3802 2016 3802 1829 
L 3802 0 
L 4288 0 
L 4288 1877 
z
" transform="scale(0.015625)"/>
       <path id="CMSS17-78" d="M 1587 1414 
L 2656 2739 
L 2099 2739 
L 1363 1777 
L 602 2739 
L 32 2739 
L 1139 1414 
L 0 0 
L 563 0 
L 1363 1121 
L 2195 0 
L 2758 0 
L 1587 1414 
z
" transform="scale(0.015625)"/>
       <path id="CMSS17-7a" d="M 2400 2502 
L 2400 2750 
L 250 2750 
L 250 2368 
L 1069 2368 
C 1146 2368 1222 2368 1299 2368 
L 1747 2368 
L 166 261 
L 166 0 
L 2419 0 
L 2419 395 
L 1549 395 
C 1472 395 1395 395 1318 395 
L 826 395 
L 2400 2502 
z
" transform="scale(0.015625)"/>
       <path id="CMSS17-72" d="M 954 1363 
C 954 1965 1395 2368 1958 2368 
L 1958 2789 
C 1549 2789 1165 2585 934 2253 
L 934 2758 
L 480 2758 
L 480 0 
L 954 0 
L 954 1363 
z
" transform="scale(0.015625)"/>
       <path id="CMSS17-73" d="M 2061 2627 
C 1683 2807 1389 2807 1197 2807 
C 742 2807 198 2648 198 2003 
C 198 1359 902 1218 1094 1179 
C 1389 1122 1715 1058 1715 740 
C 1715 337 1254 337 1171 337 
C 915 337 563 407 243 638 
L 166 210 
C 531 0 883 -64 1178 -64 
C 1965 -64 2163 416 2163 781 
C 2163 1094 1984 1305 1862 1401 
C 1651 1568 1574 1587 1050 1696 
C 960 1709 646 1779 646 2066 
C 646 2432 1050 2432 1139 2432 
C 1555 2432 1811 2303 1984 2208 
L 2061 2627 
z
" transform="scale(0.015625)"/>
      </defs>
      <use xlink:href="#CMSS17-50" transform="scale(0.996264)"/>
      <use xlink:href="#CMSS17-6f" transform="translate(57.133132 0) scale(0.996264)"/>
      <use xlink:href="#CMSS17-74" transform="translate(103.976756 0) scale(0.996264)"/>
      <use xlink:href="#CMSS17-65" transform="translate(137.808323 0) scale(0.996264)"/>
      <use xlink:href="#CMSS17-6e" transform="translate(179.447145 0) scale(0.996264)"/>
      <use xlink:href="#CMSS17-74" transform="translate(227.652088 0) scale(0.996264)"/>
      <use xlink:href="#CMSS17-69" transform="translate(261.483654 0) scale(0.996264)"/>
      <use xlink:href="#CMSS17-61" transform="translate(283.664377 0) scale(0.996264)"/>
      <use xlink:href="#CMSS17-6c" transform="translate(328.586298 0) scale(0.996264)"/>
      <use xlink:href="#CMSS17-6d" transform="translate(381.996134 0) scale(0.996264)"/>
      <use xlink:href="#CMSS17-61" transform="translate(456.225388 0) scale(0.996264)"/>
      <use xlink:href="#CMSS17-78" transform="translate(501.147309 0) scale(0.996264)"/>
      <use xlink:href="#CMSS17-69" transform="translate(544.147451 0) scale(0.996264)"/>
      <use xlink:href="#CMSS17-6d" transform="translate(566.328174 0) scale(0.996264)"/>
      <use xlink:href="#CMSS17-69" transform="translate(640.557428 0) scale(0.996264)"/>
      <use xlink:href="#CMSS17-7a" transform="translate(662.738151 0) scale(0.996264)"/>
      <use xlink:href="#CMSS17-65" transform="translate(703.416023 0) scale(0.996264)"/>
      <use xlink:href="#CMSS17-72" transform="translate(745.054845 0) scale(0.996264)"/>
      <use xlink:href="#CMSS17-73" transform="translate(776.964618 0) scale(0.996264)"/>
      <use xlink:href="#CMSS17-61" transform="translate(844.107272 0) scale(0.996264)"/>
      <use xlink:href="#CMSS17-72" transform="translate(886.426739 0) scale(0.996264)"/>
      <use xlink:href="#CMSS17-65" transform="translate(918.336512 0) scale(0.996264)"/>
      <use xlink:href="#CMSS17-61" transform="translate(959.975334 0) scale(0.996264)"/>
     </g>
    </g>
    <g id="line2d_3">
     <path d="M 220.207633 231.000465 
L 230.207633 231.000465 
L 240.207633 231.000465 
" style="fill: none; stroke: #000000; stroke-width: 2; stroke-linecap: square"/>
    </g>
    <g id="text_2">
     <!-- $f$ -->
     <g transform="translate(248.207633 234.500465) scale(0.1 -0.1)">
      <defs>
       <path id="CMMI12-66" d="M 2854 2566 
C 2982 2566 3034 2566 3034 2688 
C 3034 2752 2982 2752 2867 2752 
L 2349 2752 
C 2470 3429 2560 3897 2611 4107 
C 2650 4265 2784 4416 2950 4416 
C 3085 4416 3219 4358 3283 4298 
C 3034 4272 2957 4082 2957 3969 
C 2957 3837 3053 3759 3174 3759 
C 3302 3759 3494 3870 3494 4119 
C 3494 4393 3226 4544 2944 4544 
C 2669 4544 2400 4334 2272 4078 
C 2157 3848 2093 3611 1946 2752 
L 1517 2752 
C 1395 2752 1331 2752 1331 2637 
C 1331 2566 1370 2566 1498 2566 
L 1907 2566 
C 1792 1976 1530 542 1382 -137 
C 1274 -689 1178 -1152 858 -1152 
C 838 -1152 653 -1152 538 -1031 
C 864 -1005 864 -726 864 -720 
C 864 -593 768 -517 646 -517 
C 518 -517 326 -625 326 -867 
C 326 -1140 608 -1280 858 -1280 
C 1510 -1280 1779 -118 1850 199 
C 1965 688 2278 2376 2310 2566 
L 2854 2566 
z
" transform="scale(0.015625)"/>
      </defs>
      <use xlink:href="#CMMI12-66" transform="scale(0.996264)"/>
     </g>
    </g>
    <g id="PathCollection_2">
     <g>
      <use xlink:href="#m45e4c507a4" x="230.207633" y="245.812643" style="fill: #000080; stroke: #000080"/>
     </g>
    </g>
    <g id="text_3">
     <!-- Samples -->
     <g transform="translate(248.207633 248.437643) scale(0.1 -0.1)">
      <defs>
       <path id="CMSS17-53" d="M 2797 4169 
C 2515 4334 2208 4480 1690 4480 
C 864 4480 333 3879 333 3266 
C 333 3025 403 2753 653 2475 
C 902 2196 1184 2121 1542 2033 
C 1690 1994 1939 1924 1984 1906 
C 2342 1767 2515 1444 2515 1140 
C 2515 742 2202 318 1645 318 
C 1453 318 890 318 358 819 
L 269 318 
C 794 -64 1363 -128 1651 -128 
C 2438 -128 3002 488 3002 1186 
C 3002 1440 2925 1763 2656 2061 
C 2394 2347 2163 2410 1638 2549 
C 1338 2626 1146 2677 986 2873 
C 877 3013 819 3146 819 3317 
C 819 3673 1126 4060 1690 4060 
C 1971 4060 2336 4002 2707 3660 
L 2797 4169 
z
" transform="scale(0.015625)"/>
       <path id="CMSS17-70" d="M 966 333 
C 1178 129 1466 -5 1773 -5 
C 2368 -5 2880 603 2880 1412 
C 2880 2159 2496 2816 1946 2816 
C 1626 2816 1242 2702 954 2472 
L 954 2765 
L 480 2765 
L 480 -1216 
L 966 -1216 
L 966 333 
z
M 966 2100 
C 1018 2176 1235 2415 1587 2415 
C 2035 2415 2394 1960 2394 1412 
C 2394 787 1958 384 1530 384 
C 1402 384 1267 415 1139 523 
C 966 674 966 768 966 857 
L 966 2100 
z
" transform="scale(0.015625)"/>
      </defs>
      <use xlink:href="#CMSS17-53" transform="scale(0.996264)"/>
      <use xlink:href="#CMSS17-61" transform="translate(52.048516 0) scale(0.996264)"/>
      <use xlink:href="#CMSS17-6d" transform="translate(96.970437 0) scale(0.996264)"/>
      <use xlink:href="#CMSS17-70" transform="translate(171.199691 0) scale(0.996264)"/>
      <use xlink:href="#CMSS17-6c" transform="translate(219.404634 0) scale(0.996264)"/>
      <use xlink:href="#CMSS17-65" transform="translate(241.585357 0) scale(0.996264)"/>
      <use xlink:href="#CMSS17-73" transform="translate(283.224179 0) scale(0.996264)"/>
     </g>
    </g>
    <g id="line2d_4">
     <path d="M 220.207633 258.874822 
L 230.207633 258.874822 
L 240.207633 258.874822 
" style="fill: none; stroke: #7b9ef8; stroke-width: 1.5; stroke-linecap: square"/>
    </g>
    <g id="text_4">
     <!-- LIPO's upper bound -->
     <g transform="translate(248.207633 262.374822) scale(0.1 -0.1)">
      <defs>
       <path id="CMSS17-4c" d="M 1670 414 
C 1594 414 1517 414 1440 414 
L 1101 414 
L 1101 4416 
L 563 4416 
L 563 0 
L 3002 0 
L 3002 414 
L 1670 414 
z
" transform="scale(0.015625)"/>
       <path id="CMSS17-49" d="M 1094 4416 
L 557 4416 
L 557 0 
L 1094 0 
L 1094 4416 
z
" transform="scale(0.015625)"/>
       <path id="CMSS17-4f" d="M 4096 2178 
C 4096 3503 3219 4497 2214 4497 
C 1210 4497 333 3497 333 2178 
C 333 847 1222 -128 2214 -128 
C 3206 -128 4096 847 4096 2178 
z
M 2214 273 
C 1510 273 870 1057 870 2261 
C 870 3433 1549 4096 2214 4096 
C 2880 4096 3558 3433 3558 2261 
C 3558 1051 2912 273 2214 273 
z
" transform="scale(0.015625)"/>
       <path id="CMSS17-27" d="M 1088 3910 
L 1088 4413 
L 576 4413 
L 576 3904 
L 736 3904 
L 570 3104 
L 826 3104 
L 1088 3910 
z
" transform="scale(0.015625)"/>
       <path id="CMSS17-75" d="M 2618 2739 
L 2131 2739 
L 2131 972 
C 2131 498 1786 306 1421 306 
C 998 306 960 447 960 709 
L 960 2739 
L 474 2739 
L 474 678 
C 474 179 646 -64 1088 -64 
C 1306 -64 1798 -13 2144 306 
L 2144 0 
L 2618 0 
L 2618 2739 
z
" transform="scale(0.015625)"/>
       <path id="CMSS17-62" d="M 954 4416 
L 480 4416 
L 480 -13 
L 966 -13 
L 966 274 
C 1210 38 1504 -64 1766 -64 
C 2381 -64 2880 549 2880 1352 
C 2880 2086 2496 2756 1926 2756 
C 1523 2756 1165 2591 954 2419 
L 954 4416 
z
M 966 2046 
C 1107 2222 1306 2368 1587 2368 
C 1965 2368 2394 2097 2394 1352 
C 2394 558 1882 325 1530 325 
C 1402 325 1267 356 1139 464 
C 966 615 966 709 966 797 
L 966 2046 
z
" transform="scale(0.015625)"/>
       <path id="CMSS17-64" d="M 2611 4416 
L 2138 4416 
L 2138 2438 
C 1939 2603 1613 2756 1254 2756 
C 672 2756 211 2131 211 1347 
C 211 562 666 -64 1235 -64 
C 1677 -64 1971 172 2125 306 
L 2125 -13 
L 2611 -13 
L 2611 4416 
z
M 2125 836 
C 2125 747 2125 653 1926 482 
C 1798 375 1645 325 1498 325 
C 1152 325 698 576 698 1340 
C 698 2134 1210 2368 1562 2368 
C 1798 2368 1990 2254 2125 2065 
L 2125 836 
z
" transform="scale(0.015625)"/>
      </defs>
      <use xlink:href="#CMSS17-4c" transform="scale(0.996264)"/>
      <use xlink:href="#CMSS17-49" transform="translate(50.687105 0) scale(0.996264)"/>
      <use xlink:href="#CMSS17-50" transform="translate(76.471031 0) scale(0.996264)"/>
      <use xlink:href="#CMSS17-4f" transform="translate(136.206617 0) scale(0.996264)"/>
      <use xlink:href="#CMSS17-27" transform="translate(205.230873 0) scale(0.996264)"/>
      <use xlink:href="#CMSS17-73" transform="translate(231.255077 0) scale(0.996264)"/>
      <use xlink:href="#CMSS17-75" transform="translate(298.397732 0) scale(0.996264)"/>
      <use xlink:href="#CMSS17-70" transform="translate(346.602675 0) scale(0.996264)"/>
      <use xlink:href="#CMSS17-70" transform="translate(394.807618 0) scale(0.996264)"/>
      <use xlink:href="#CMSS17-65" transform="translate(445.615 0) scale(0.996264)"/>
      <use xlink:href="#CMSS17-72" transform="translate(487.253822 0) scale(0.996264)"/>
      <use xlink:href="#CMSS17-62" transform="translate(550.392708 0) scale(0.996264)"/>
      <use xlink:href="#CMSS17-6f" transform="translate(601.20009 0) scale(0.996264)"/>
      <use xlink:href="#CMSS17-75" transform="translate(648.043713 0) scale(0.996264)"/>
      <use xlink:href="#CMSS17-6e" transform="translate(696.248656 0) scale(0.996264)"/>
      <use xlink:href="#CMSS17-64" transform="translate(744.453599 0) scale(0.996264)"/>
     </g>
    </g>
   </g>
  </g>
 </g>
 <defs>
  <clipPath id="p2538913227">
   <rect x="7.2" y="7.2" width="357.12" height="266.112"/>
  </clipPath>
 </defs>
 <defs>
  <pattern id="h3fdf03956e" patternUnits="userSpaceOnUse" x="0" y="0" width="72" height="72">
   <rect x="0" y="0" width="73" height="73" fill="#ffffff"/>
   <path d="M -36 36 
L 36 -36 
M -30 42 
L 42 -30 
M -24 48 
L 48 -24 
M -18 54 
L 54 -18 
M -12 60 
L 60 -12 
M -6 66 
L 66 -6 
M 0 72 
L 72 0 
M 6 78 
L 78 6 
M 12 84 
L 84 12 
M 18 90 
L 90 18 
M 24 96 
L 96 24 
M 30 102 
L 102 30 
M 36 108 
L 108 36 
" style="fill: #32a861; stroke: #32a861; stroke-width: 4.0; stroke-linecap: butt; stroke-linejoin: miter; stroke-opacity: 0.5"/>
  </pattern>
  <pattern id="h7e472f4792" patternUnits="userSpaceOnUse" x="0" y="0" width="72" height="72">
   <rect x="0" y="0" width="73" height="73" fill="#ffffff"/>
   <path d="M -36 36 
L 36 -36 
M -30 42 
L 42 -30 
M -24 48 
L 48 -24 
M -18 54 
L 54 -18 
M -12 60 
L 60 -12 
M -6 66 
L 66 -6 
M 0 72 
L 72 0 
M 6 78 
L 78 6 
M 12 84 
L 84 12 
M 18 90 
L 90 18 
M 24 96 
L 96 24 
M 30 102 
L 102 30 
M 36 108 
L 108 36 
" style="fill: #32a861; stroke: #32a861; stroke-width: 4.0; stroke-linecap: butt; stroke-linejoin: miter"/>
  </pattern>
 </defs>
</svg>
